<svg xmlns="http://www.w3.org/2000/svg" width="453.987" height="453.99" viewBox="0 0 453.987 453.99">
  <g id="ghost" transform="translate(1.5 1.5)">
    <g id="Group_2" data-name="Group 2" transform="translate(0 0)">
      <g id="Group_1" data-name="Group 1">
        <path id="Path_3" data-name="Path 3" d="M448.79,157.9a7.513,7.513,0,0,0-5.316-2.2H419.853V100.936a7.512,7.512,0,0,0-7.516-7.516H388.708V69.8a7.512,7.512,0,0,0-7.516-7.516H357.57V38.654a7.512,7.512,0,0,0-7.516-7.516H326.432V7.516A7.512,7.512,0,0,0,318.915,0H132.075a7.512,7.512,0,0,0-7.516,7.516V31.138H100.937a7.512,7.512,0,0,0-7.516,7.516V62.282H69.8A7.512,7.512,0,0,0,62.283,69.8V93.42H38.654a7.512,7.512,0,0,0-7.516,7.516V155.7H7.516A7.512,7.512,0,0,0,0,163.212V412.335a7.512,7.512,0,0,0,7.516,7.516H31.138v23.621a7.512,7.512,0,0,0,7.516,7.516h62.282a7.512,7.512,0,0,0,7.516-7.516V419.853h23.621a7.512,7.512,0,0,0,7.516-7.516V388.708h16.1v23.629a7.512,7.512,0,0,0,7.516,7.516h23.629v23.621a7.512,7.512,0,0,0,7.516,7.516h62.275a7.512,7.512,0,0,0,7.516-7.516V419.853h23.629a7.512,7.512,0,0,0,7.516-7.516V388.708h16.1v23.629a7.512,7.512,0,0,0,7.516,7.516h23.621v23.621a7.512,7.512,0,0,0,7.516,7.516h62.282a7.512,7.512,0,0,0,7.516-7.516V419.853H443.47a7.512,7.512,0,0,0,7.516-7.516V163.213A7.5,7.5,0,0,0,448.79,157.9ZM435.957,404.819H412.335a7.512,7.512,0,0,0-7.516,7.516v23.621h-47.25V412.335a7.512,7.512,0,0,0-7.516-7.516H326.432V381.191a7.512,7.512,0,0,0-7.516-7.516H287.778a7.512,7.512,0,0,0-7.516,7.516v23.629H256.633a7.512,7.512,0,0,0-7.516,7.516v23.621H201.875V412.335a7.512,7.512,0,0,0-7.516-7.516H170.73V381.191a7.512,7.512,0,0,0-7.516-7.516H132.076a7.512,7.512,0,0,0-7.516,7.516v23.629H100.938a7.512,7.512,0,0,0-7.516,7.516v23.621H46.171V412.335a7.512,7.512,0,0,0-7.516-7.516H15.033V170.729H38.655a7.512,7.512,0,0,0,7.516-7.516V108.453H69.8a7.512,7.512,0,0,0,7.516-7.516V77.316h23.621a7.512,7.512,0,0,0,7.516-7.516V46.171h23.621a7.512,7.512,0,0,0,7.516-7.516V15.033H311.4V38.655a7.512,7.512,0,0,0,7.516,7.516h23.621V69.8a7.512,7.512,0,0,0,7.516,7.516h23.621v23.621a7.512,7.512,0,0,0,7.516,7.516h23.629v54.759a7.512,7.512,0,0,0,7.516,7.516h23.621v234.09Z" transform="translate(0 0)" fill="#fff" stroke="#ff83cf" stroke-width="3"/>
        <path id="Path_4" data-name="Path 4" d="M144.05,220.232h60.132a7.512,7.512,0,0,0,7.516-7.516V152.583a7.512,7.512,0,0,0-7.516-7.516H144.05a7.512,7.512,0,0,0-7.516,7.516v60.132a7.512,7.512,0,0,0,7.516,7.516Zm7.516-60.132h45.1v45.1h-45.1Z" transform="translate(-16.269 -17.286)" fill="#fff" stroke="#ff83cf" stroke-width="3"/>
        <path id="Path_5" data-name="Path 5" d="M297.65,220.232h60.132a7.512,7.512,0,0,0,7.516-7.516V152.583a7.512,7.512,0,0,0-7.516-7.516H297.65a7.512,7.512,0,0,0-7.516,7.516v60.132a7.512,7.512,0,0,0,7.516,7.516Zm7.516-60.132h45.1v45.1h-45.1Z" transform="translate(-34.572 -17.286)" fill="#fff" stroke="#ff83cf" stroke-width="3"/>
        <path id="Path_6" data-name="Path 6" d="M397.976,311.666H367.91a7.512,7.512,0,0,0-7.516,7.516v22.549H345.361V319.182a7.512,7.512,0,0,0-7.516-7.516H315.295V289.116a7.512,7.512,0,0,0-7.516-7.516H277.712a7.512,7.512,0,0,0-7.516,7.516v22.549h-22.55a7.512,7.512,0,0,0-7.516,7.516v22.549H225.1V319.182a7.512,7.512,0,0,0-7.516-7.516h-22.55V289.116a7.512,7.512,0,0,0-7.516-7.516H157.449a7.512,7.512,0,0,0-7.516,7.516v22.549h-22.55a7.512,7.512,0,0,0-7.516,7.516v22.549H104.834V319.182a7.512,7.512,0,0,0-7.516-7.516H67.25a7.512,7.512,0,0,0-7.516,7.516v30.067a7.512,7.512,0,0,0,7.516,7.516H89.8v22.55a7.512,7.512,0,0,0,7.516,7.516h30.066a7.512,7.512,0,0,0,7.516-7.516v-22.55h22.55a7.512,7.512,0,0,0,7.516-7.516V326.7H180v22.549a7.512,7.512,0,0,0,7.516,7.516h22.55v22.55a7.512,7.512,0,0,0,7.516,7.516h30.066a7.512,7.512,0,0,0,7.516-7.516v-22.55h22.55a7.512,7.512,0,0,0,7.516-7.516V326.7h15.035v22.549a7.512,7.512,0,0,0,7.516,7.516h22.549v22.55a7.512,7.512,0,0,0,7.516,7.516H367.91a7.512,7.512,0,0,0,7.516-7.516v-22.55h22.55a7.512,7.512,0,0,0,7.516-7.516V319.183a7.514,7.514,0,0,0-7.516-7.517ZM89.8,341.732H74.766V326.7H89.8v15.033ZM119.865,371.8H104.832V356.765h15.033Zm30.066-30.066H134.9V326.7h15.033ZM180,311.666H164.964V296.632H180Zm30.066,30.067H195.03V326.7h15.033ZM240.129,371.8H225.1V356.765h15.033ZM270.2,341.732H255.163V326.7H270.2Zm30.066-30.067H285.228V296.632h15.033Zm30.066,30.067H315.294V326.7h15.033ZM360.394,371.8H345.361V356.765h15.033Zm30.066-30.066H375.426V326.7H390.46Z" transform="translate(-7.118 -33.555)" fill="#fff" stroke="#ff83cf" stroke-width="3"/>
      </g>
    </g>
  </g>
</svg>
