<svg id="pixeled_git" xmlns="http://www.w3.org/2000/svg" width="59.789" height="58.855" viewBox="0 0 59.789 58.855">
  <path id="Path_1" data-name="Path 1" d="M26.625-511.3v.7H19.618v1.4h-2.8v1.4h-2.8v1.4h-1.4v1.4h-2.8v1.4h-1.4v1.4h-1.4v2.8h-1.4v1.4H4.2v2.8H2.8v2.8H1.4v4.2H0v14.013H1.4v4.2H2.8v2.8H4.2v2.8h1.4v1.4h1.4v1.4h1.4v1.4h1.4v1.4h1.4v1.4h1.4v1.4h2.8v1.4h2.8v1.4h4.2v-5.605H16.816v-1.4h-2.8v-1.4h-1.4v-2.8h-1.4v-2.8h-1.4v-1.4h-1.4v-1.4h2.8v1.4h1.4v1.4h1.4v1.4h1.4v1.4h1.4v1.4h4.2v-1.4h1.4v-1.4h1.4v-2.8h-4.2v-1.4h-2.8v-1.4h-2.8v-2.8h-1.4v-2.8h-1.4v-11.21h1.4v-2.8h1.4v-2.8h-1.4v-1.4h1.4v-4.2h2.8v1.4h2.8v1.4H39.236v-1.4h4.2v-1.4h2.8v9.809h1.4v2.8h1.4v8.408h-1.4v4.2h-1.4v1.4h-1.4v1.4h-1.4v1.4h-2.8v1.4H35.033v1.4h1.4v2.8h1.4v11.21h4.2v-1.4h2.8v-1.4h1.4v-1.4h2.8v-1.4h1.4v-1.4h1.4v-1.4h1.4v-1.4h1.4v-2.8h1.4v-2.8h1.4v-2.8h1.4v-7.007h.934v-7.007h-.934v-5.605h-1.4v-4.2h-1.4v-1.4h-1.4v-2.8h-1.4v-1.4h-1.4v-1.4h-1.4v-1.4h-1.4v-1.4h-1.4v-1.4h-2.8v-1.4h-1.4v-1.4h-4.2v-1.4H33.631V-512H26.625Z" transform="translate(0 512)" fill="#ff3cc3"/>
</svg>
